<svg width="200" height="200" viewBox="0 0 200 200" fill="none" xmlns="http://www.w3.org/2000/svg">
<path d="M193.75 18.75C193.75 12.5 187.5 6.25 181.25 6.25H18.75C12.5 6.25 6.25 12.5 6.25 18.75V137.5H193.75V18.75Z" fill="#212528"/>
<path d="M6.25 137.5V150C6.25 156.25 12.5 162.5 18.75 162.5H181.25C187.5 162.5 193.75 156.25 193.75 150V137.5H6.25Z" fill="#DDDDDD"/>
<path d="M75 168.75C75 181.25 62.5 181.25 50 181.25H150C137.5 181.25 125 181.25 125 168.75V162.5H75V168.75Z" fill="#BFBEBE"/>
<path d="M18.75 18.75H181.25V125H18.75V18.75Z" fill="#3E4347"/>
<path d="M100 152.813C101.726 152.813 103.125 151.413 103.125 149.688C103.125 147.962 101.726 146.563 100 146.563C98.2741 146.563 96.875 147.962 96.875 149.688C96.875 151.413 98.2741 152.813 100 152.813Z" fill="#94989B"/>
<path d="M50 181.25H150V193.75H50V181.25Z" fill="#94989B"/>
<path d="M25 29H96.688V32H25V29Z" fill="#32C896"/>
<path d="M25 37H66V40H25V37Z" fill="#32C896"/>
<path d="M25 61H46.0746V64H25V61Z" fill="#32C896"/>
<path d="M25 45H44.066V48H25V45Z" fill="#32C896"/>
<path d="M51 45H115V48H51V45Z" fill="#32C896"/>
<path d="M52 61H106V64H52V61Z" fill="#32C896"/>
<path d="M25 53H81.0378V56H25V53Z" fill="#32C896"/>
<path d="M88 53H144.038V56H88V53Z" fill="#32C896"/>
<path d="M25 69H96.688V72H25V69Z" fill="#32C896"/>
<path d="M25 77H58V80H25V77Z" fill="#32C896"/>
<path d="M25 85H136V88H25V85Z" fill="#32C896"/>
<path d="M25 93H108V96H25V93Z" fill="#32C896"/>
<path d="M25 101H85.721V104H25V101Z" fill="#32C896"/>
<path d="M93 100H125V103H93V100Z" fill="#32C896"/>
<path d="M25 109H57V112H25V109Z" fill="#32C896"/>
<path d="M65 77H122V80H65V77Z" fill="#32C896"/>
</svg>
